#!OML:ASF F:\VICON\USERDATA\INSTALL\rory3\rory3.ASF
:FULLY-SPECIFIED
:DEGREES
79
root 9.84296 17.7437 8.87409 -165.063 -28.6328 179.073
lowerback -9.27782 0.157955 -1.67736
upperback -3.04039 0.191872 -0.831492
thorax 2.04273 0.013055 0.102287
lowerneck -18.6874 1.62817 2.84757
upperneck 25.1207 1.4524 -2.16903
head 11.2988 0.432224 -1.10039
rclavicle -4.34469e-014 9.93923e-016
rhumerus -34.0348 14.1848 -96.8726
rradius 26.1667
rwrist 6.25162
rhand -21.9618 11.9349
rfingers 7.12502
rthumb 4.44563 -17.9985
lclavicle -4.34469e-014 9.93923e-016
lhumerus -38.8423 -11.2972 87.0939
lradius 32.1877
lwrist 7.62075
lhand -11.0768 27.1275
lfingers 7.12502
lthumb 14.9465 56.5682
rfemur 6.93228 -0.960637 18.2346
rtibia 12.7651
rfoot -8.12832 11.6661
rtoes -1.84798
lfemur -44.9711 9.03152 -27.4532
ltibia 29.9005
lfoot -4.86719 -5.91522
ltoes -12.0118
80
root 9.75134 17.7479 8.76442 -165.269 -28.7938 179.322
lowerback -9.21606 0.119445 -1.48128
upperback -3.03805 0.123314 -0.811634
thorax 2.01293 -0.0202128 0.0052325
lowerneck -18.7886 1.64742 2.96599
upperneck 25.1479 1.46005 -2.2315
head 11.3309 0.439605 -1.14212
rclavicle -2.44505e-014 -2.98177e-015
rhumerus -34.2693 14.145 -96.9864
rradius 26.2204
rwrist 5.73114
rhand -22.3882 11.666
rfingers 7.12502
rthumb 4.03389 -18.2756
lclavicle -2.44505e-014 -2.98177e-015
lhumerus -38.6806 -11.3128 87.0087
lradius 31.7286
lwrist 6.88536
lhand -11.0095 26.9973
lfingers 7.12502
lthumb 15.0113 56.4331
rfemur 6.74244 -1.05046 18.3787
rtibia 14.0368
rfoot -7.42706 11.6134
rtoes -2.49537
lfemur -44.7932 9.21105 -27.2719
ltibia 30.546
lfoot -5.13331 -6.55047
ltoes -10.7604
81
root 9.65936 17.7585 8.64871 -164.566 -28.6659 178.222
lowerback -9.48615 0.000411005 -2.59286
upperback -3.1182 0.0592181 -1.07869
thorax 2.07518 -0.0601353 0.346351
lowerneck -18.7454 1.65744 3.00602
upperneck 25.1322 1.48048 -2.29789
head 11.318 0.443803 -1.1702
rclavicle -9.34288e-015 -8.74653e-015
rhumerus -34.6033 14.2152 -97.1261
rradius 26.3485
rwrist 4.91976
rhand -22.776 11.4497
rfingers 7.12502
rthumb 3.6594 -18.4986
lclavicle -9.34288e-015 -8.74653e-015
lhumerus -38.5739 -11.2785 87.0211
lradius 31.2655
lwrist 6.56778
lhand -11.3609 26.8313
lfingers 7.12502
lthumb 14.6728 56.2921
rfemur 6.27364 -1.32398 17.1153
rtibia 15.3668
rfoot -6.51268 11.7479
rtoes -3.26356
lfemur -44.7133 9.35963 -28.5409
ltibia 31.092
lfoot -5.4814 -7.46304
ltoes -9.63323
82
root 9.57675 17.7712 8.54524 -164.395 -28.7395 178.159
lowerback -9.52634 -0.069202 -2.77804
upperback -3.21925 -0.0264688 -1.10367
thorax 1.99396 -0.105236 0.415046
lowerneck -18.7679 1.68374 3.13142
upperneck 25.1544 1.49661 -2.36831
head 11.3333 0.453635 -1.2151
rclavicle 2.09966e-014 -5.1684e-015
rhumerus -34.7841 13.9557 -97.09
rradius 26.4004
rwrist 4.8268
rhand -22.7355 11.4811
rfingers 7.12502
rthumb 3.69848 -18.4666
lclavicle 2.09966e-014 -5.1684e-015
lhumerus -38.4614 -11.3904 87.072
lradius 30.8692
lwrist 6.5459
lhand -11.4878 26.9511
lfingers 7.12502
lthumb 14.5505 56.4208
rfemur 5.50532 -1.46853 17.0246
rtibia 17.0273
rfoot -5.88398 11.479
rtoes -6.4731
lfemur -44.6351 9.4558 -28.6937
ltibia 31.4799
lfoot -5.77825 -7.97265
ltoes -9.10232
83
root 9.47904 17.7871 8.43327 -164.71 -28.8528 178.318
lowerback -9.36879 -0.0739709 -2.61118
upperback -3.17048 -0.0455035 -1.1263
thorax 1.95885 -0.112271 0.296301
lowerneck -18.8211 1.64876 3.21499
upperneck 25.1861 1.42131 -2.37715
head 11.3542 0.426341 -1.2442
rclavicle -1.50082e-014 2.54444e-014
rhumerus -34.9232 13.6183 -96.972
rradius 26.5229
rwrist 4.83815
rhand -22.6405 11.2296
rfingers 7.12502
rthumb 3.79025 -18.7164
lclavicle -1.50082e-014 2.54444e-014
lhumerus -38.3496 -11.6416 87.14
lradius 30.5324
lwrist 6.44634
lhand -11.5601 26.8599
lfingers 7.12502
lthumb 14.4809 56.3346
rfemur 5.07483 -1.95962 17.0472
rtibia 18.838
rfoot -5.35997 11.4858
rtoes -11.7917
lfemur -43.982 9.66449 -28.6014
ltibia 31.6998
lfoot -6.24334 -8.27273
ltoes -9.67867
84
root 9.40239 17.8103 8.33149 -164.325 -29.0183 178.011
lowerback -9.43004 -0.167019 -3.02033
upperback -3.33557 -0.149672 -1.18085
thorax 1.82307 -0.167809 0.458394
lowerneck -18.7513 1.58871 3.13323
upperneck 25.185 1.34768 -2.33217
head 11.3365 0.389811 -1.22534
rclavicle -3.34952e-014 -1.15295e-014
rhumerus -35.2393 13.5849 -96.9584
rradius 26.786
rwrist 4.54245
rhand -22.7735 10.9798
rfingers 7.12502
rthumb 3.66185 -18.9685
lclavicle -3.34952e-014 -1.15295e-014
lhumerus -38.2783 -11.8544 87.2732
lradius 30.2696
lwrist 6.38599
lhand -11.6517 26.7382
lfingers 7.12502
lthumb 14.3926 56.2192
rfemur 4.13332 -2.13792 16.7653
rtibia 20.4966
rfoot -4.44411 11.2105
rtoes -14.0412
lfemur -43.8767 9.69545 -29.0162
ltibia 31.86
lfoot -6.51328 -8.61095
ltoes -10.4149
85
root 9.31669 17.8318 8.22573 -164.274 -29.1964 177.923
lowerback -9.34643 -0.289849 -3.20993
upperback -3.41791 -0.308117 -1.17497
thorax 1.69654 -0.246412 0.554605
lowerneck -18.7208 1.61127 3.12795
upperneck 25.1994 1.36924 -2.29658
head 11.3364 0.40248 -1.2085
rclavicle 2.75068e-014 3.18055e-015
rhumerus -35.4331 13.2779 -96.7826
rradius 26.9005
rwrist 4.89968
rhand -22.4438 11.1575
rfingers 7.12502
rthumb 3.98025 -18.7851
lclavicle 2.75068e-014 3.18055e-015
lhumerus -38.1535 -11.9002 87.3529
lradius 29.9358
lwrist 6.28688
lhand -11.5376 26.8836
lfingers 7.12502
lthumb 14.5026 56.3567
rfemur 3.49841 -2.4116 16.5886
rtibia 22.1012
rfoot -3.21044 11.2118
rtoes -13.9088
lfemur -43.4786 9.79807 -29.1771
ltibia 31.9896
lfoot -6.7969 -9.03924
ltoes -9.84955
